<svg xmlns="http://www.w3.org/2000/svg" width="128" height="128" viewBox="0 0 64 64" role="img" aria-label="Context Search: a document and a yellow search lens">
  <rect x="1" y="1" width="62" height="62" rx="14" fill="#EAF3FC"/>
  <path d="M18 9h18l11 11v29a4 4 0 0 1-4 4H18a4 4 0 0 1-4-4V13a4 4 0 0 1 4-4Z" fill="#FFFFFF" stroke="#234D70" stroke-width="3" stroke-linejoin="round"/>
  <path d="M36 10v10h10" fill="#CEE4F8" stroke="#234D70" stroke-width="3" stroke-linejoin="round"/>
  <path d="M21 24h15M21 31h11M21 38h7" fill="none" stroke="#5883A7" stroke-width="3" stroke-linecap="round"/>
  <path d="m51 50 8 8" fill="none" stroke="#234D70" stroke-width="6" stroke-linecap="round"/>
  <circle cx="43" cy="42" r="11.5" fill="#FFCC00" stroke="#234D70" stroke-width="3.5"/>
  <path d="M37.5 41.5a5.5 5.5 0 0 1 5.5-5.5" fill="none" stroke="#FFFFFF" stroke-width="2.5" stroke-linecap="round"/>
</svg>
